<mxfile host="app.diagrams.net" agent="Mozilla/5.0 (Windows NT 10.0; Win64; x64) AppleWebKit/537.36 (KHTML, like Gecko) Chrome/135.0.0.0 Safari/537.36" version="26.2.14">
  <diagram name="Página-1" id="YPWu4K7jKxmmavmiq5R1">
    <mxGraphModel dx="1642" dy="452" grid="1" gridSize="10" guides="1" tooltips="1" connect="1" arrows="1" fold="1" page="1" pageScale="1" pageWidth="827" pageHeight="1169" math="0" shadow="0">
      <root>
        <mxCell id="0" />
        <mxCell id="1" parent="0" />
        <mxCell id="StLlxSwePUPEB_9DSHHr-1" value="Transacción para generar una órden&lt;div&gt;Patrón SAGA&lt;/div&gt;" style="text;html=1;align=center;verticalAlign=middle;resizable=0;points=[];autosize=1;strokeColor=none;fillColor=none;" vertex="1" parent="1">
          <mxGeometry x="-50" y="205" width="220" height="40" as="geometry" />
        </mxCell>
        <mxCell id="StLlxSwePUPEB_9DSHHr-7" style="edgeStyle=orthogonalEdgeStyle;rounded=0;orthogonalLoop=1;jettySize=auto;html=1;dashed=1;" edge="1" parent="1" source="StLlxSwePUPEB_9DSHHr-2" target="StLlxSwePUPEB_9DSHHr-6">
          <mxGeometry relative="1" as="geometry" />
        </mxCell>
        <mxCell id="StLlxSwePUPEB_9DSHHr-30" style="edgeStyle=orthogonalEdgeStyle;rounded=0;orthogonalLoop=1;jettySize=auto;html=1;entryX=0.75;entryY=0;entryDx=0;entryDy=0;dashed=1;" edge="1" parent="1" source="StLlxSwePUPEB_9DSHHr-2" target="StLlxSwePUPEB_9DSHHr-14">
          <mxGeometry relative="1" as="geometry" />
        </mxCell>
        <mxCell id="StLlxSwePUPEB_9DSHHr-31" value="Notificación&lt;div&gt;orden fallida&lt;/div&gt;" style="edgeLabel;html=1;align=center;verticalAlign=middle;resizable=0;points=[];" vertex="1" connectable="0" parent="StLlxSwePUPEB_9DSHHr-30">
          <mxGeometry x="-0.0905" y="-1" relative="1" as="geometry">
            <mxPoint as="offset" />
          </mxGeometry>
        </mxCell>
        <mxCell id="StLlxSwePUPEB_9DSHHr-2" value="Order Service" style="rounded=0;whiteSpace=wrap;html=1;" vertex="1" parent="1">
          <mxGeometry x="30" y="249" width="120" height="60" as="geometry" />
        </mxCell>
        <mxCell id="StLlxSwePUPEB_9DSHHr-3" value="" style="endArrow=classic;html=1;rounded=0;" edge="1" parent="1">
          <mxGeometry width="50" height="50" relative="1" as="geometry">
            <mxPoint x="-120" y="280" as="sourcePoint" />
            <mxPoint x="30" y="280" as="targetPoint" />
          </mxGeometry>
        </mxCell>
        <mxCell id="StLlxSwePUPEB_9DSHHr-29" value="HTTP Request" style="edgeLabel;html=1;align=center;verticalAlign=middle;resizable=0;points=[];" vertex="1" connectable="0" parent="StLlxSwePUPEB_9DSHHr-3">
          <mxGeometry x="-0.3638" y="-1" relative="1" as="geometry">
            <mxPoint x="12" y="-11" as="offset" />
          </mxGeometry>
        </mxCell>
        <mxCell id="StLlxSwePUPEB_9DSHHr-9" style="edgeStyle=orthogonalEdgeStyle;rounded=0;orthogonalLoop=1;jettySize=auto;html=1;dashed=1;" edge="1" parent="1">
          <mxGeometry relative="1" as="geometry">
            <mxPoint x="370" y="440.0000000000001" as="targetPoint" />
            <mxPoint x="370" y="309" as="sourcePoint" />
          </mxGeometry>
        </mxCell>
        <mxCell id="StLlxSwePUPEB_9DSHHr-18" value="Publica evento en Kafka&lt;div&gt;Pagar órden&lt;/div&gt;" style="edgeLabel;html=1;align=center;verticalAlign=middle;resizable=0;points=[];" vertex="1" connectable="0" parent="StLlxSwePUPEB_9DSHHr-9">
          <mxGeometry x="-0.2126" y="-2" relative="1" as="geometry">
            <mxPoint x="-61" y="10" as="offset" />
          </mxGeometry>
        </mxCell>
        <mxCell id="StLlxSwePUPEB_9DSHHr-11" style="edgeStyle=orthogonalEdgeStyle;rounded=0;orthogonalLoop=1;jettySize=auto;html=1;entryX=1;entryY=0.25;entryDx=0;entryDy=0;dashed=1;" edge="1" parent="1" source="StLlxSwePUPEB_9DSHHr-6" target="StLlxSwePUPEB_9DSHHr-2">
          <mxGeometry relative="1" as="geometry">
            <Array as="points">
              <mxPoint x="290" y="264" />
              <mxPoint x="290" y="264" />
            </Array>
          </mxGeometry>
        </mxCell>
        <mxCell id="StLlxSwePUPEB_9DSHHr-6" value="Products Service" style="rounded=0;whiteSpace=wrap;html=1;" vertex="1" parent="1">
          <mxGeometry x="330" y="249" width="120" height="60" as="geometry" />
        </mxCell>
        <mxCell id="StLlxSwePUPEB_9DSHHr-8" value="Publica evento en Kafka&lt;div&gt;Consulta stock disponible&lt;/div&gt;" style="text;html=1;align=center;verticalAlign=middle;resizable=0;points=[];autosize=1;strokeColor=none;fillColor=none;" vertex="1" parent="1">
          <mxGeometry x="150" y="280" width="160" height="40" as="geometry" />
        </mxCell>
        <mxCell id="StLlxSwePUPEB_9DSHHr-12" value="Error al procesar la orden" style="text;html=1;align=center;verticalAlign=middle;resizable=0;points=[];autosize=1;strokeColor=none;fillColor=none;" vertex="1" parent="1">
          <mxGeometry x="160" y="240" width="160" height="30" as="geometry" />
        </mxCell>
        <mxCell id="StLlxSwePUPEB_9DSHHr-16" style="edgeStyle=orthogonalEdgeStyle;rounded=0;orthogonalLoop=1;jettySize=auto;html=1;dashed=1;" edge="1" parent="1">
          <mxGeometry relative="1" as="geometry">
            <mxPoint x="410" y="440" as="sourcePoint" />
            <mxPoint x="410" y="309" as="targetPoint" />
          </mxGeometry>
        </mxCell>
        <mxCell id="StLlxSwePUPEB_9DSHHr-19" value="Error al procesar&amp;nbsp;&lt;div&gt;el pago&lt;/div&gt;" style="edgeLabel;html=1;align=center;verticalAlign=middle;resizable=0;points=[];" vertex="1" connectable="0" parent="StLlxSwePUPEB_9DSHHr-16">
          <mxGeometry x="-0.3021" y="1" relative="1" as="geometry">
            <mxPoint x="48" y="-26" as="offset" />
          </mxGeometry>
        </mxCell>
        <mxCell id="StLlxSwePUPEB_9DSHHr-20" style="edgeStyle=orthogonalEdgeStyle;rounded=0;orthogonalLoop=1;jettySize=auto;html=1;dashed=1;" edge="1" parent="1" source="StLlxSwePUPEB_9DSHHr-13">
          <mxGeometry relative="1" as="geometry">
            <mxPoint x="200" y="470" as="targetPoint" />
          </mxGeometry>
        </mxCell>
        <mxCell id="StLlxSwePUPEB_9DSHHr-21" value="Pago OK" style="edgeLabel;html=1;align=center;verticalAlign=middle;resizable=0;points=[];" vertex="1" connectable="0" parent="StLlxSwePUPEB_9DSHHr-20">
          <mxGeometry x="-0.0095" y="-1" relative="1" as="geometry">
            <mxPoint as="offset" />
          </mxGeometry>
        </mxCell>
        <mxCell id="StLlxSwePUPEB_9DSHHr-13" value="Payment Service" style="rounded=0;whiteSpace=wrap;html=1;" vertex="1" parent="1">
          <mxGeometry x="330" y="440" width="120" height="60" as="geometry" />
        </mxCell>
        <mxCell id="StLlxSwePUPEB_9DSHHr-14" value="Notification Service" style="rounded=0;whiteSpace=wrap;html=1;" vertex="1" parent="1">
          <mxGeometry y="440" width="120" height="60" as="geometry" />
        </mxCell>
        <mxCell id="StLlxSwePUPEB_9DSHHr-24" value="" style="endArrow=classic;html=1;rounded=0;entryX=0.662;entryY=0.974;entryDx=0;entryDy=0;entryPerimeter=0;dashed=1;" edge="1" parent="1" source="StLlxSwePUPEB_9DSHHr-25" target="StLlxSwePUPEB_9DSHHr-2">
          <mxGeometry width="50" height="50" relative="1" as="geometry">
            <mxPoint x="200" y="440" as="sourcePoint" />
            <mxPoint x="240" y="390" as="targetPoint" />
          </mxGeometry>
        </mxCell>
        <mxCell id="StLlxSwePUPEB_9DSHHr-25" value="" style="points=[[0.145,0.145,0],[0.5,0,0],[0.855,0.145,0],[1,0.5,0],[0.855,0.855,0],[0.5,1,0],[0.145,0.855,0],[0,0.5,0]];shape=mxgraph.bpmn.event;html=1;verticalLabelPosition=bottom;labelBackgroundColor=#ffffff;verticalAlign=top;align=center;perimeter=ellipsePerimeter;outlineConnect=0;aspect=fixed;outline=end;symbol=terminate2;" vertex="1" parent="1">
          <mxGeometry x="190" y="465" width="10" height="10" as="geometry" />
        </mxCell>
        <mxCell id="StLlxSwePUPEB_9DSHHr-26" value="" style="endArrow=classic;html=1;rounded=0;entryX=1;entryY=0.5;entryDx=0;entryDy=0;exitX=0;exitY=0.5;exitDx=0;exitDy=0;exitPerimeter=0;dashed=1;" edge="1" parent="1" source="StLlxSwePUPEB_9DSHHr-25" target="StLlxSwePUPEB_9DSHHr-14">
          <mxGeometry width="50" height="50" relative="1" as="geometry">
            <mxPoint x="203" y="476" as="sourcePoint" />
            <mxPoint x="119" y="317" as="targetPoint" />
          </mxGeometry>
        </mxCell>
        <mxCell id="StLlxSwePUPEB_9DSHHr-27" value="" style="curved=1;endArrow=classic;html=1;rounded=0;exitX=0;exitY=0.5;exitDx=0;exitDy=0;entryX=0.569;entryY=0.002;entryDx=0;entryDy=0;entryPerimeter=0;dashed=1;" edge="1" parent="1" source="StLlxSwePUPEB_9DSHHr-14" target="StLlxSwePUPEB_9DSHHr-14">
          <mxGeometry width="50" height="50" relative="1" as="geometry">
            <mxPoint x="-30" y="420" as="sourcePoint" />
            <mxPoint x="110" y="370" as="targetPoint" />
            <Array as="points">
              <mxPoint x="-60" y="410" />
              <mxPoint x="60" y="370" />
            </Array>
          </mxGeometry>
        </mxCell>
        <mxCell id="StLlxSwePUPEB_9DSHHr-28" value="Re-intentar notificación&lt;br&gt;(En caso de fallos)" style="edgeLabel;html=1;align=center;verticalAlign=middle;resizable=0;points=[];" vertex="1" connectable="0" parent="StLlxSwePUPEB_9DSHHr-27">
          <mxGeometry x="0.0696" y="1" relative="1" as="geometry">
            <mxPoint x="-42" y="-18" as="offset" />
          </mxGeometry>
        </mxCell>
      </root>
    </mxGraphModel>
  </diagram>
</mxfile>
